<svg width="1440" height="462" viewBox="0 0 1440 462" fill="none" xmlns="http://www.w3.org/2000/svg">
<path d="M760.92 185.489C758.294 151.353 710.153 145.226 713.654 192.492C717.447 221.668 725.033 268.794 725.033 274.396C725.033 281.399 731.16 297.154 746.04 297.154H819.564V340.918C819.564 344.419 823.941 354.923 831.818 354.923H865.079C878.209 354.923 871.207 332.165 860.703 332.165C857.202 332.165 854.576 332.165 854.576 329.539V274.396C854.576 269.144 847.574 260.392 837.07 260.392H769.673L768.227 242.599L814.251 244.758C828.5 244.758 832.5 223.5 812.5 222C792.5 220.5 777.564 219.841 764.726 219.841L760.92 185.489Z" stroke="#7B2064" stroke-opacity="0.08" stroke-width="5"/>
<path d="M690.021 283.522C690.021 279.32 688.584 267.977 688 260.392C659.59 276.175 640 298.162 640 341.926C640 388.317 684.194 424 720.092 424C788.364 424 803.5 380.157 803.5 377C795.852 377 791.5 374.5 787.5 367C774.873 389.097 753.641 405.06 720.092 405.06C686.543 405.06 658.94 367.893 658.94 341.926C658.94 315.959 671.567 291.419 690.021 283.522Z" stroke="#7B2064" stroke-opacity="0.08" stroke-width="5"/>
<path d="M657.636 185.992C643.631 185.992 643.631 210.5 660.262 210.5H682.144C685.645 239.384 692.647 298.379 692.647 303.281C692.647 309.408 690.897 323.412 706.652 323.412C719.256 323.412 766.172 324.579 788.054 325.163V364.551C788.054 368.052 789.805 376.805 804.684 376.805H869.456C883.461 376.805 880.835 361.925 869.456 361.925H814.313V315.535C814.313 305.906 807.31 300.655 797.682 300.655H718.031C714.53 275.563 707.527 221.704 707.527 206.999C707.527 188.618 699.65 185.992 692.647 185.992H657.636Z" stroke="#7B2064" stroke-opacity="0.08" stroke-width="5"/>
<path d="M750.677 132.773C750.677 141.633 744.199 148.4 736.697 148.4C729.195 148.4 722.717 141.633 722.717 132.773C722.717 123.912 729.195 117.145 736.697 117.145C744.199 117.145 750.677 123.912 750.677 132.773Z" stroke="#7B2064" stroke-opacity="0.08" stroke-width="5"/>
<circle cx="718.569" cy="344.271" r="5.73991" stroke="#7B2064" stroke-opacity="0.08" stroke-width="5"/>
<path d="M814.734 426.751C820.102 423.412 869.758 382.008 873.784 377C875.797 377 879.152 377.801 876.468 381.007C873.113 385.014 827.144 423.278 820.102 428.754C814 433.5 820.997 437.597 829 436C837.003 434.403 937.5 421 962 421C1013.5 421 943.5 437.5 954.5 446.5C965.5 455.5 1058.25 461.228 1138.12 442.11C1218 422.993 1227.67 408.622 1301.5 397C1375.33 385.378 1449 406.027 1449 410.5C1400.7 403.527 1373 393.327 1305 402.5C1237 411.673 1204.88 432 1138 449C1071.12 466 964.5 463.5 949 451C933.5 438.5 985.182 426.5 955.5 426.5C946.441 426.5 840.628 439.085 825.5 441.5C810.53 443.89 809.366 430.09 814.734 426.751Z" fill="#7B2064" fill-opacity="0.1"/>
<path d="M184.229 405.537C133.957 414.074 0.0920048 421.974 -12.0239 417.231C-14.6041 418.586 -17.8799 421.839 -10.3411 424.007C-0.917655 426.717 155 416.568 187.258 411.297C222.5 405.537 293.372 387.29 324.5 384C358 380.46 405.778 412.77 419.283 417C456 428.5 522.316 413.892 541.5 410.166C553.415 407.851 558.5 390.435 546 385C538.368 381.682 534 381 525 378.5C516 376 521.253 367.318 522.497 363.324C524 358.5 525.373 350.067 527.729 342.275C530.085 334.483 544.556 278.242 540.181 283.324C535.806 288.406 521.334 341.936 519.651 350.067C517.969 358.198 518.458 358.242 516.776 361.63C510.383 374.5 510.989 379.6 518 382C528.224 385.5 533.119 386.909 540.046 389C549.5 391.854 548.092 403.517 540.046 404.231C528.603 405.247 449.671 424.994 419.283 410.166C400.5 401 349 371.5 317.501 377.581C297.842 381.376 234.5 397 184.229 405.537Z" fill="#7B2064" fill-opacity="0.1"/>
<path d="M480 392.22C481.199 389.227 481.998 387.432 481.998 384.639C481.998 381.846 480.2 353.318 486.393 340.151C492.587 326.984 499.38 317.408 503.176 303.842C506.972 290.276 513.565 267.534 514.964 255.763C516.362 243.993 519.759 244.592 522.356 244.592C524.953 244.592 514.764 244.592 510.968 244.592C507.172 244.592 499.979 243.594 498.381 233.021C496.783 222.447 492.187 163.196 492.587 155.017C492.987 146.838 489.99 122.499 488.791 117.711C487.592 112.923 485.994 94.9683 487.392 88.7839C489.332 80.2055 499.58 65.4427 512.566 61.6523C515.563 53.2734 517.361 50.4804 521.157 47.0889C522.356 46.158 523.795 43.2187 519.959 38.9095C515.164 33.5231 516.162 19.5583 519.959 13.9724C523.755 8.38643 530.947 3 540.937 3C550.926 3 562.914 11.1794 563.513 17.3638C564.113 23.5482 564.512 32.5256 566.111 38.9095C567.709 45.2935 565.511 46.4905 564.512 48.8844C563.513 51.2784 562.914 52.6749 564.512 53.8719C566.111 55.0688 563.513 59.0588 560.317 59.6573C557.12 60.2558 552.725 65.2432 558.119 68.4352C563.513 71.6271 574.702 77.8116 580.096 87.5869C585.491 97.3623 592.483 113.522 595.88 118.11C599.276 122.698 597.278 128.883 600.475 133.272C603.672 137.661 632.841 166.588 640.833 174.568C648.825 182.548 650.623 215.465 623.251 194.119C595.88 172.772 575.901 160.603 567.309 150.429C558.718 140.254 552.525 126.688 548.929 119.706C545.332 112.724 551.925 105.542 558.319 115.716C564.712 125.89 574.902 145.242 577.499 150.429C580.096 155.616 583.692 217.26 584.092 226.238C584.492 235.215 580.496 241.798 568.908 241.798C557.32 241.798 554.922 249.18 554.123 253.17C553.324 257.16 543.534 279.703 542.335 282.496C541.137 285.289 537.54 282.496 534.344 282.496C531.147 282.496 527.95 302.845 522.756 311.623C517.561 320.401 511.767 337.158 510.568 340.151C509.37 343.143 499.979 371.472 500.179 378.055C500.379 384.639 504.175 388.429 507.372 391.222C510.568 394.015 512.566 400 506.373 400C500.179 400 492.787 400 486.393 400C481.279 400 478.285 396.5 480 392.22Z" stroke="#7B2064" stroke-opacity="0.08" stroke-width="5"/>
<path d="M555.107 343.075C543.821 324.926 541 296.375 541 284.369C548.792 274.949 564.699 257.503 565.989 263.075C567.601 270.04 571.027 277.602 573.647 306.259C576.266 334.916 591.582 359.991 597.023 362.976C602.464 365.961 602.061 368.946 617.175 364.369C632.289 359.792 633.7 371.533 623.221 378.101C612.742 384.668 605.487 387.454 595.008 396.409C584.577 405.323 578.938 395.111 577.694 392.858L577.677 392.827C576.468 390.638 574.654 382.081 574.654 378.101C574.654 374.12 569.213 365.762 555.107 343.075Z" stroke="#7B2064" stroke-opacity="0.08" stroke-width="6"/>
</svg>
