<svg width="47" height="45" viewBox="0 0 47 45" fill="none" xmlns="http://www.w3.org/2000/svg">
<path d="M11.4112 18.8371C6.54822 17.4542 1.68528 10.5399 0.295868 8.46559C-0.878941 6.80616 1.68529 2.93415 3.7694 6.3913C6.54822 9.84846 11.4112 13.997 21.8318 13.3056C23.9159 13.3056 26 16.0713 26 17.4542V21.6028C25.0737 21.3723 23.2212 21.0496 23.2212 21.6028V31.5171L23.2212 33.5914V43.9629C23.2212 45.3457 19.7477 44.6543 19.7477 43.9629V34.2828C19.7477 32.9 15.5794 32.9 15.5794 34.2828V43.9629C15.5794 45.3457 12.1059 45.3457 12.1059 43.9629V33.5914L12.1059 32.2085C12.1059 30.1342 12.1059 22.9856 11.4112 18.8371Z" fill="#1A716B"/>
<circle cx="15.5" cy="6.5" r="5.5" fill="#1A716B"/>
<path d="M26.6449 17.2191C26.6449 15.3246 25.4089 14.0617 24.7908 13.4302C24.4482 13.08 24.7908 12.1673 27.2629 12.1673C38.2556 12.1673 41.7645 8.71636 43.9497 6.4839C45.1858 5.2211 48.2759 6.48392 46.4218 9.6413C45.1857 12.1672 37.0278 15.7035 36.5333 17.2191C36.0389 18.7346 35.9153 25.4282 35.9153 27.9542C35.9153 30.4802 28.4991 33.0061 28.4992 34.269C29.1171 34.9005 29.9825 37.8053 30.9713 39.3209C32.2074 41.2153 29.7352 43.1097 28.4992 41.2153C28.0144 40.4722 26.027 37.4264 24.7911 35.532C24.7911 35.532 23.555 34.269 24.1731 33.0061C24.7911 31.7431 27.2632 27.9903 27.2632 27.3228C27.2632 24.7974 26.6449 18.7174 26.6449 17.2191Z" fill="#7B2064"/>
<path d="M32.5586 39.3416C31.7686 38.1797 30.1561 35.2838 29.9145 34.4287C29.8037 34.0363 32.7201 31.7531 33.6846 33.172C34.4745 34.334 35.4606 36.2131 36.2859 37.8267C37.3175 39.8437 34.1387 41.6653 32.5586 39.3416Z" fill="#7B2064"/>
<circle cx="31" cy="5" r="5" fill="#7B2064"/>
</svg>
