<svg width="45" height="42" viewBox="0 0 45 42" fill="none" xmlns="http://www.w3.org/2000/svg">
<path d="M21.143 24.5968C19.8383 23.2834 13.8046 21.9701 12.5 20C11.1953 20.6567 11.1634 22.3156 13.3151 23.9401C15.9243 25.9102 17.2291 25.2535 19.8384 26.5669C22.4477 27.8802 22.4477 25.9102 21.143 24.5968Z" fill="#7B2064"/>
<path d="M6.84159 22.7097V20C6.15743 20 0 24.0645 0 30.1613C0 37.6129 5.47327 41 10.9465 41C16.4198 41 19.1565 37.6129 19.8406 36.2581C20.5248 34.9032 18.8495 33.8523 17.7881 34.9032C17.104 35.5806 15.558 38.2903 10.2624 38.2903C6.84159 38.2903 2.73664 34.9032 2.73664 30.8387C2.73664 26.7742 4.78911 24.7419 6.84159 22.7097Z" fill="#1A716B"/>
<path d="M7 32.0505V19.4501C7 15.95 12.541 16.65 12.541 18.75V26.4503C12.541 28.5504 14.6188 28.5504 14.6188 28.5504H19.4672C21.545 28.5504 22.7847 28.2561 23.6229 29.9504C25.0081 32.7505 26.3934 34.8506 27.7786 37.6507C29.1639 40.4508 24.1926 41.9 23.5 40.5C22.8074 39.1 20.1598 34.1506 19.4672 33.4505C19.3412 33.3232 19 33 18.5 33C18 33 10.4631 33.7 9.07786 33.7C7.69262 33.7 7 33.4505 7 32.0505Z" fill="#7B2064"/>
<circle cx="11" cy="10" r="4" fill="#1A716B"/>
<path d="M27.8367 14.8029C24.4665 16.1992 21.7703 22.4823 20.4223 24.5766C19.0742 26.671 21.0963 29.8124 24.4665 24.5766C25.8145 22.4825 25.8146 22.4822 26.4884 21.0864L26.4886 21.086C27.1627 19.6898 28.5108 18.2935 28.5108 20.3879V35.0484C28.5108 40.6333 31.881 42.0296 31.881 36.4446C31.881 33.6521 32.7797 30.1615 33.229 28.7653V37.8409C33.229 41.3315 36.5993 39.9352 36.5993 37.8409C36.5993 34.3504 37.2733 23.1805 37.2733 16.8973C39.2954 16.8973 42.6656 11.3123 44.0137 9.218C46.7099 5.02933 43.3066 5.07212 40.6435 8.51988C35.2512 15.501 31.2069 13.4067 27.8367 14.8029Z" fill="#7B2064"/>
<circle cx="32" cy="4" r="4" fill="#1A716B"/>
</svg>
