<svg width="47" height="42" viewBox="0 0 47 42" fill="none" xmlns="http://www.w3.org/2000/svg">
<path d="M15.494 21.7004C11.4521 22.8793 11.1153 26.416 11.1153 27.9317C11.452 33.4894 18.1885 34.1631 20.8831 34.1631C24.2514 35.7799 27.6758 34.8367 28.9669 34.1631C31.1563 32.8158 30.8195 30.037 29.3037 29.2791C28.6301 28.9423 29.1353 27.8196 30.1458 28.2687C31.6615 28.9423 33.1772 32.3106 30.1458 35.0052C27.8628 37.0345 23.5777 36.6331 21.5568 36.0156C21.2199 38.8786 32.3352 45.1099 35.8718 38.0366C38.2296 37.8682 41.7663 32.8158 40.419 29.616C46.4818 28.4371 48.6712 18.5007 42.6083 12.9431C42.7767 11.2589 39.0717 3.34364 31.1563 4.01729C28.4617 1.49111 23.5777 -0.866669 18.3569 2.66996C15.9992 1.32266 9.43109 1.15428 7.07332 6.71185C1.68412 7.52023 0.112275 12.3256 0 14.6272C0 20.8585 4.88396 24.3951 8.2522 24.5636C8.92585 24.6983 9.88019 24.5074 10.2732 24.3951C10.2732 23.0479 12.9677 20.5217 14.9887 20.3532C14.9887 15.3009 12.7993 12.7747 10.9468 11.9326C8.05412 10.6177 5.05237 11.9326 4.88396 14.6272C4.71554 17.3218 6.9049 17.9954 7.74697 17.9954C8.42062 17.9954 9.03813 17.8832 9.26268 17.8271C10.61 17.3219 10.7784 18.7533 9.76791 19.0059C9.09426 19.1744 8.2522 19.3622 7.74697 19.3428C4.24399 19.2081 3.48055 16.143 3.5367 14.6272C3.36828 11.0906 7.24173 9.06962 10.9468 10.2485C11.9573 6.20661 16.6729 6.0382 16.8413 6.0382C17.0097 6.0382 19.3675 6.20662 19.7043 6.54344C19.9737 6.8129 20.1534 6.76799 20.2095 6.71185C20.3779 6.37503 21.9777 4.6909 24.7566 4.52249C29.2027 4.25303 30.9879 8.11522 31.3247 10.08C33.0762 9.67581 40.0822 9.74327 40.419 16.3112C40.419 16.8165 40.2506 17.6586 40.2506 17.827C40.9242 18.669 42.9452 21.7005 41.0926 24.9003C39.2401 28.1001 33.8509 25.7423 33.3457 25.4055C32.8404 25.0687 27.6197 23.2162 25.7671 25.0687C23.9146 26.9212 21.8936 27.5949 20.7148 27.5949C19.5359 27.5949 18.5254 26.7528 18.0202 25.7423C17.5149 24.7319 18.8622 24.3951 19.199 24.9003C19.5359 25.4055 19.5359 26.2476 20.7148 26.416C21.8936 26.5844 23.2409 25.2371 24.7566 24.0582C25.9692 23.1151 28.5179 22.8793 29.6406 22.8793C33.5141 22.7109 37.3876 27.9317 40.2506 23.553C41.1937 21.6668 39.6331 19.062 38.7349 17.9954C38.7349 16.8164 39.2642 16.3112 39.0717 15.6376C37.9939 11.8652 34.8052 11.1466 33.3457 11.2589C28.4617 10.922 27.9565 15.9744 28.2933 16.3112C29.9101 15.6376 32.3352 17.7147 33.3457 18.8374C34.3561 19.6795 33.3457 21.111 32.3352 19.8479C30.1795 17.1533 27.0583 17.4901 25.7671 17.9954C24.7566 18.3322 24.4703 19.5111 21.8936 17.9954C19.6032 16.6481 17.7956 18.4445 17.1781 19.5111C17.0097 20.1847 16.8413 21.3075 15.494 21.7004Z" fill="#7B2064"/>
<path d="M19.5358 8.05913C15.4939 6.20661 12.2941 8.73279 12.1256 11.0905C15.6623 12.7747 16.336 18.1639 16.336 18.1639C18.5253 15.1324 22.2304 16.3114 23.7461 17.3219C24.2514 16.985 26.1039 16.3114 26.7776 16.3114C26.946 13.28 28.6301 11.0906 29.9774 10.5854C28.9669 4.18565 22.2304 5.19614 21.0515 7.89075C20.7147 8.5644 19.8165 8.39594 19.5358 8.05913Z" fill="#1A716B"/>
</svg>
