<svg width="60" height="38" viewBox="0 0 60 38" fill="none" xmlns="http://www.w3.org/2000/svg">
<path d="M19.2545 7.81093C24.7368 4.33632 23.0186 -1.45622 13.3807 4.72173C5.5489 9.742 2.50319 14.762 2.02459 23.2571C1.633 30.2078 5.94049 36 13.3807 36C19.2979 36 24.5504 29.8218 23.9536 23.6432C23.2078 15.9204 16.5134 15.9208 15.3387 14.3758C15.3387 14.3758 13.7723 11.2855 19.2545 7.81093Z" stroke="#606161" stroke-width="4"/>
<path d="M53.2545 7.81093C58.7368 4.33632 57.0186 -1.45622 47.3807 4.72173C39.5489 9.742 36.5032 14.762 36.0246 23.2571C35.633 30.2078 39.9405 36 47.3807 36C53.2979 36 58.5504 29.8218 57.9536 23.6432C57.2078 15.9204 50.5134 15.9208 49.3387 14.3758C49.3387 14.3758 47.7723 11.2855 53.2545 7.81093Z" stroke="#606161" stroke-width="4"/>
</svg>
