<svg width="45" height="50" viewBox="0 0 45 50" fill="none" xmlns="http://www.w3.org/2000/svg">
<path d="M27.1465 22.7654C26.0258 22.7654 25.7457 21.2245 27.1465 21.2245C28.5474 21.2245 37.5128 20.9443 37.5128 20.9443C39.1004 18.843 42.4717 14.3603 43.2562 13.2397C44.2368 11.8388 45.4976 13.5198 44.7971 14.2202C44.0967 14.9207 39.4739 21.2245 39.1938 21.6447C38.9136 22.065 38.6334 22.7654 37.6528 22.7654H27.1465Z" fill="#1A716B"/>
<path d="M19.3524 11.3382C18.9321 5.87489 11.2275 4.89431 11.7879 12.4589C12.3949 17.1283 13.609 24.6706 13.609 25.5671C13.609 26.6878 14.5895 29.2093 16.971 29.2093H28.738V36.2135C28.738 36.7738 29.4385 38.4549 30.6992 38.4549H36.0224C38.1237 38.4549 37.003 34.8127 35.322 34.8127C34.7617 34.8127 34.3414 34.8127 34.3414 34.3924V25.5671C34.3414 24.7266 33.2207 23.3258 31.5397 23.3258H20.7532L20.3619 19.1978H27.7863C29.4673 19.1978 29.4673 15.5556 27.5062 15.5556H19.8015L19.3524 11.3382Z" fill="#7B2064"/>
<path d="M8.00559 27.0276C8.00559 26.3552 8.17668 24.4535 8.08329 23.2395C3.53644 25.7655 0 29.3706 0 36.3748C0 43.7993 7.07288 49.5102 12.8181 49.5102C23.7447 49.5102 26.2707 40.9217 26.2707 40.4165C24.4496 40.1363 24.9205 40.0896 23.2395 40.4165C21.2186 43.9529 18.1874 46.4789 12.8181 46.4789C7.44881 46.4789 3.03124 40.5307 3.03124 36.3748C3.03124 32.219 5.05206 28.2915 8.00559 27.0276Z" fill="#7B2064"/>
<path d="M2.82247 11.4186C0.581126 11.4186 0.581126 15.3409 3.24272 15.3409H6.74483C7.30517 19.9637 8.42584 29.4054 8.42584 30.1899C8.42584 31.1704 8.14568 33.4118 10.6672 33.4118C12.6844 33.4118 20.1929 33.5986 23.695 33.692V39.9958C23.695 40.5561 23.9752 41.9569 26.3566 41.9569H36.7228C38.9642 41.9569 38.5439 39.5755 36.7228 39.5755H27.8975V32.151C27.8975 30.6101 26.7769 29.7696 25.2359 29.7696H12.4883C11.9279 25.7539 10.8073 17.134 10.8073 14.7806C10.8073 11.8388 9.54652 11.4186 8.42584 11.4186H2.82247Z" fill="#1A716B"/>
<path d="M18.1132 2.90123C18.1132 4.50353 16.9323 5.80246 15.4757 5.80246C14.0191 5.80246 12.8382 4.50353 12.8382 2.90123C12.8382 1.29892 14.0191 0 15.4757 0C16.9323 0 18.1132 1.29892 18.1132 2.90123Z" fill="#1A716B"/>
<circle cx="12.5745" cy="36.7501" r="1.31874" fill="#7B2064"/>
</svg>
